<?xml version="1.0" encoding="iso-8859-1"?>
<!-- Uploaded to: SVG Repo, www.svgrepo.com, Generator: SVG Repo Mixer Tools -->
<svg fill="#000000" height="800px" width="800px" version="1.1" id="Layer_1" xmlns="http://www.w3.org/2000/svg" xmlns:xlink="http://www.w3.org/1999/xlink" 
	 viewBox="0 0 484.391 484.391" xml:space="preserve">
<g>
	<g>
		<g>
			<path d="M254.551,168.13c-10.87,0-19.768,8.894-19.768,19.766c0,10.873,8.899,19.767,19.768,19.767
				c10.868,0,19.766-8.894,19.766-19.767C274.317,177.024,265.418,168.13,254.551,168.13z"/>
			<path d="M284.199,0h-64.24c-41.967,0-81.715,16.851-111.924,47.448C78.597,77.266,61.713,117.65,61.713,158.247v58.309
				l-19.573,97.86c-0.588,2.938,0.173,5.984,2.072,8.301c1.899,2.317,4.737,3.66,7.733,3.66h36.179
				c5.011,4.478,5.149,10.266,4.279,22.371c-1.208,16.802-3.034,42.192,35.191,56.092c1.095,0.398,2.252,0.602,3.417,0.602h108.596
				v78.949h20v-88.949c0-5.523-4.477-10-10-10H132.821c-22.386-8.631-21.617-19.299-20.47-35.26
				c0.924-12.85,2.189-30.448-15.326-42.125c-1.643-1.095-3.572-1.68-5.547-1.68H64.143l17.375-86.87
				c0.129-0.646,0.194-1.303,0.194-1.961v-59.299C81.713,83.309,145.021,20,219.959,20h64.24
				c76.23,0,138.246,62.017,138.246,138.247V484.39h20V158.247C442.445,70.989,371.456,0,284.199,0z"/>
			<path d="M264.551,84.49V54.474h-20V84.49c-49.318,4.732-88.675,44.087-93.407,93.406h-30.017v20h30.017
				c4.732,49.319,44.089,88.674,93.407,93.406v30.016h20v-30.016c49.318-4.732,88.673-44.087,93.405-93.406h30.017v-20h-30.017
				C353.223,128.577,313.869,89.222,264.551,84.49z M254.551,271.786c-46.258,0-83.891-37.633-83.891-83.89
				s37.633-83.89,83.891-83.89c46.257,0,83.889,37.633,83.889,83.89S300.807,271.786,254.551,271.786z"/>
			<path d="M254.551,118.597c-38.212,0-69.299,31.087-69.299,69.299s31.087,69.299,69.299,69.299
				c38.21,0,69.297-31.087,69.297-69.299C323.848,149.684,292.761,118.597,254.551,118.597z M254.551,237.195
				c-27.184,0-49.299-22.115-49.299-49.299c0-27.184,22.115-49.299,49.299-49.299c27.183,0,49.297,22.115,49.297,49.299
				C303.848,215.08,281.733,237.195,254.551,237.195z"/>
		</g>
	</g>
</g>
</svg>